<svg width="256" height="256" viewBox="0 0 256 256" fill="none" xmlns="http://www.w3.org/2000/svg">
<rect width="256" height="256" rx="128" fill="#0081CF"/>
<path d="M62.9447 177.632C57.4141 177.632 51.6567 176.589 45.6727 174.504C39.6887 172.419 34.2941 169.245 29.4887 164.984L42.8167 148.936C45.9901 151.475 49.3901 153.56 53.0167 155.192C56.7341 156.733 60.2247 157.504 63.4887 157.504C67.0247 157.504 69.5634 156.96 71.1047 155.872C72.7367 154.784 73.5527 153.243 73.5527 151.248C73.5527 149.163 72.4647 147.576 70.2887 146.488C68.2034 145.4 65.3021 144.131 61.5847 142.68L50.5687 138.056C45.8541 136.152 41.6834 133.16 38.0567 129.08C34.5207 125 32.7527 119.787 32.7527 113.44C32.7527 108.363 34.1581 103.784 36.9687 99.704C39.7794 95.5333 43.6327 92.224 48.5287 89.776C53.5154 87.2373 59.2274 85.968 65.6647 85.968C70.7421 85.968 75.8647 86.9653 81.0327 88.96C86.2914 90.864 90.9607 93.8107 95.0407 97.8L83.3447 112.488C80.3527 110.403 77.4514 108.816 74.6407 107.728C71.9207 106.64 68.9287 106.096 65.6647 106.096C62.8541 106.096 60.5874 106.595 58.8647 107.592C57.2327 108.589 56.4167 110.085 56.4167 112.08C56.4167 114.165 57.5954 115.797 59.9527 116.976C62.3101 118.064 65.4834 119.379 69.4727 120.92L80.2167 125.136C85.7474 127.312 90.0087 130.349 93.0007 134.248C95.9927 138.147 97.4887 143.179 97.4887 149.344C97.4887 154.331 96.1287 159 93.4087 163.352C90.7794 167.613 86.8807 171.059 81.7127 173.688C76.5447 176.317 70.2887 177.632 62.9447 177.632ZM111.694 176V87.6H135.086V120.512H135.63L157.934 87.6H183.502L157.118 123.504L188.67 176H163.102L143.518 142L135.086 153.968V176H111.694ZM209.061 177.632C205.162 177.632 201.898 176.272 199.269 173.552C196.73 170.741 195.461 167.387 195.461 163.488C195.461 159.499 196.73 156.144 199.269 153.424C201.898 150.704 205.162 149.344 209.061 149.344C213.05 149.344 216.314 150.704 218.853 153.424C221.391 156.144 222.661 159.499 222.661 163.488C222.661 167.387 221.391 170.741 218.853 173.552C216.314 176.272 213.05 177.632 209.061 177.632Z" fill="white"/>
</svg>
