<svg width="157" height="60" viewBox="0 0 157 60" fill="none" xmlns="http://www.w3.org/2000/svg">
<path d="M73.36 35.192C72.8267 35.192 72.2933 35.0907 71.76 34.888C71.2267 34.6747 70.768 34.4133 70.384 34.104L71.248 32.92C71.6 33.1867 71.952 33.4 72.304 33.56C72.656 33.72 73.0293 33.8 73.424 33.8C73.8507 33.8 74.1653 33.7093 74.368 33.528C74.5707 33.3467 74.672 33.1227 74.672 32.856C74.672 32.632 74.5867 32.4507 74.416 32.312C74.256 32.1627 74.048 32.0347 73.792 31.928C73.536 31.8107 73.2693 31.6987 72.992 31.592C72.6507 31.464 72.3093 31.3093 71.968 31.128C71.6373 30.936 71.3653 30.696 71.152 30.408C70.9387 30.1093 70.832 29.7413 70.832 29.304C70.832 28.6107 71.088 28.0453 71.6 27.608C72.112 27.1707 72.8053 26.952 73.68 26.952C74.2347 26.952 74.7307 27.048 75.168 27.24C75.6053 27.432 75.984 27.6507 76.304 27.896L75.456 29.016C75.1787 28.8133 74.896 28.6533 74.608 28.536C74.3307 28.408 74.0373 28.344 73.728 28.344C73.3333 28.344 73.04 28.4293 72.848 28.6C72.656 28.76 72.56 28.9627 72.56 29.208C72.56 29.5173 72.72 29.752 73.04 29.912C73.36 30.072 73.7333 30.2267 74.16 30.376C74.5227 30.504 74.8747 30.664 75.216 30.856C75.5573 31.0373 75.84 31.2773 76.064 31.576C76.2987 31.8747 76.416 32.2693 76.416 32.76C76.416 33.432 76.1547 34.008 75.632 34.488C75.1093 34.9573 74.352 35.192 73.36 35.192ZM79.7941 35.192C78.8875 35.192 78.2421 34.9307 77.8581 34.408C77.4848 33.8747 77.2981 33.1867 77.2981 32.344V28.6H76.1781V27.224L77.3941 27.144L77.6181 25H79.1541V27.144H81.1541V28.6H79.1541V32.344C79.1541 33.2613 79.5221 33.72 80.2581 33.72C80.3968 33.72 80.5408 33.704 80.6901 33.672C80.8395 33.6293 80.9675 33.5867 81.0741 33.544L81.3941 34.904C81.1808 34.9787 80.9355 35.0427 80.6581 35.096C80.3915 35.16 80.1035 35.192 79.7941 35.192ZM85.1974 35.192C84.472 35.192 83.816 35.032 83.2294 34.712C82.6427 34.3813 82.1787 33.912 81.8374 33.304C81.496 32.6853 81.3254 31.944 81.3254 31.08C81.3254 30.2267 81.496 29.4907 81.8374 28.872C82.1894 28.2533 82.6427 27.7787 83.1974 27.448C83.752 27.1173 84.3334 26.952 84.9414 26.952C85.656 26.952 86.2534 27.112 86.7334 27.432C87.2134 27.7413 87.576 28.1787 87.8214 28.744C88.0667 29.2987 88.1894 29.944 88.1894 30.68C88.1894 31.064 88.1627 31.3627 88.1094 31.576H83.1174C83.2027 32.2693 83.4534 32.808 83.8694 33.192C84.2854 33.576 84.808 33.768 85.4374 33.768C85.7787 33.768 86.0934 33.72 86.3814 33.624C86.68 33.5173 86.9734 33.3733 87.2614 33.192L87.8854 34.344C87.512 34.5893 87.096 34.792 86.6374 34.952C86.1787 35.112 85.6987 35.192 85.1974 35.192ZM83.1014 30.328H86.5894C86.5894 29.72 86.456 29.2453 86.1894 28.904C85.9227 28.552 85.5227 28.376 84.9894 28.376C84.5307 28.376 84.12 28.5467 83.7574 28.888C83.4054 29.2187 83.1867 29.6987 83.1014 30.328ZM90.9868 35L88.2508 27.144H90.1228L91.3708 31.224C91.4774 31.608 91.5841 31.9973 91.6908 32.392C91.8081 32.7867 91.9201 33.1867 92.0268 33.592H92.0908C92.2081 33.1867 92.3201 32.7867 92.4268 32.392C92.5441 31.9973 92.6561 31.608 92.7628 31.224L94.0108 27.144H95.7868L93.1148 35H90.9868ZM99.6949 35.192C98.9695 35.192 98.3135 35.032 97.7269 34.712C97.1402 34.3813 96.6762 33.912 96.3349 33.304C95.9935 32.6853 95.8229 31.944 95.8229 31.08C95.8229 30.2267 95.9935 29.4907 96.3349 28.872C96.6869 28.2533 97.1402 27.7787 97.6949 27.448C98.2495 27.1173 98.8309 26.952 99.4389 26.952C100.154 26.952 100.751 27.112 101.231 27.432C101.711 27.7413 102.074 28.1787 102.319 28.744C102.564 29.2987 102.687 29.944 102.687 30.68C102.687 31.064 102.66 31.3627 102.607 31.576H97.6149C97.7002 32.2693 97.9509 32.808 98.3669 33.192C98.7829 33.576 99.3055 33.768 99.9349 33.768C100.276 33.768 100.591 33.72 100.879 33.624C101.178 33.5173 101.471 33.3733 101.759 33.192L102.383 34.344C102.01 34.5893 101.594 34.792 101.135 34.952C100.676 35.112 100.196 35.192 99.6949 35.192ZM97.5989 30.328H101.087C101.087 29.72 100.954 29.2453 100.687 28.904C100.42 28.552 100.02 28.376 99.4869 28.376C99.0282 28.376 98.6175 28.5467 98.2549 28.888C97.9029 29.2187 97.6842 29.6987 97.5989 30.328ZM103.724 35V27.144H105.244L105.372 28.2H105.436C105.788 27.8587 106.172 27.5653 106.588 27.32C107.004 27.0747 107.479 26.952 108.012 26.952C108.855 26.952 109.468 27.224 109.852 27.768C110.236 28.312 110.428 29.08 110.428 30.072V35H108.588V30.312C108.588 29.6613 108.492 29.2027 108.3 28.936C108.108 28.6693 107.794 28.536 107.356 28.536C107.015 28.536 106.711 28.6213 106.444 28.792C106.188 28.952 105.895 29.192 105.564 29.512V35H103.724ZM114.44 35V23.704H116.248V30.76H116.296L119.208 27.144H121.224L118.536 30.344L121.496 35H119.496L117.48 31.592L116.248 33V35H114.44ZM125.065 35.192C124.34 35.192 123.684 35.032 123.097 34.712C122.51 34.3813 122.046 33.912 121.705 33.304C121.364 32.6853 121.193 31.944 121.193 31.08C121.193 30.2267 121.364 29.4907 121.705 28.872C122.057 28.2533 122.51 27.7787 123.065 27.448C123.62 27.1173 124.201 26.952 124.809 26.952C125.524 26.952 126.121 27.112 126.601 27.432C127.081 27.7413 127.444 28.1787 127.689 28.744C127.934 29.2987 128.057 29.944 128.057 30.68C128.057 31.064 128.03 31.3627 127.977 31.576H122.985C123.07 32.2693 123.321 32.808 123.737 33.192C124.153 33.576 124.676 33.768 125.305 33.768C125.646 33.768 125.961 33.72 126.249 33.624C126.548 33.5173 126.841 33.3733 127.129 33.192L127.753 34.344C127.38 34.5893 126.964 34.792 126.505 34.952C126.046 35.112 125.566 35.192 125.065 35.192ZM122.969 30.328H126.457C126.457 29.72 126.324 29.2453 126.057 28.904C125.79 28.552 125.39 28.376 124.857 28.376C124.398 28.376 123.988 28.5467 123.625 28.888C123.273 29.2187 123.054 29.6987 122.969 30.328ZM132.902 35.192C132.156 35.192 131.441 34.8507 130.758 34.168H130.71L130.55 35H129.094V23.704H130.934V26.616L130.886 27.928C131.217 27.64 131.58 27.4053 131.974 27.224C132.369 27.0427 132.764 26.952 133.158 26.952C134.14 26.952 134.902 27.3147 135.446 28.04C135.99 28.7653 136.262 29.7307 136.262 30.936C136.262 31.832 136.102 32.6 135.782 33.24C135.462 33.8693 135.046 34.3547 134.534 34.696C134.033 35.0267 133.489 35.192 132.902 35.192ZM132.518 33.672C133.041 33.672 133.478 33.4427 133.83 32.984C134.182 32.5253 134.358 31.8533 134.358 30.968C134.358 30.1787 134.225 29.5653 133.958 29.128C133.692 28.6907 133.26 28.472 132.662 28.472C132.108 28.472 131.532 28.7653 130.934 29.352V33.016C131.212 33.2507 131.484 33.4213 131.75 33.528C132.028 33.624 132.284 33.672 132.518 33.672ZM137.39 35V27.144H139.23V35H137.39ZM138.318 25.768C137.987 25.768 137.721 25.672 137.518 25.48C137.315 25.288 137.214 25.032 137.214 24.712C137.214 24.4027 137.315 24.152 137.518 23.96C137.721 23.768 137.987 23.672 138.318 23.672C138.649 23.672 138.915 23.768 139.118 23.96C139.321 24.152 139.422 24.4027 139.422 24.712C139.422 25.032 139.321 25.288 139.118 25.48C138.915 25.672 138.649 25.768 138.318 25.768ZM142.649 35.192C141.999 35.192 141.535 34.9947 141.257 34.6C140.991 34.2053 140.857 33.6667 140.857 32.984V23.704H142.697V33.08C142.697 33.304 142.74 33.464 142.825 33.56C142.911 33.6453 143.001 33.688 143.097 33.688C143.14 33.688 143.177 33.688 143.209 33.688C143.252 33.6773 143.311 33.6667 143.385 33.656L143.625 35.032C143.519 35.0747 143.38 35.112 143.209 35.144C143.049 35.176 142.863 35.192 142.649 35.192ZM146.385 35.192C145.702 35.192 145.142 34.9787 144.705 34.552C144.278 34.1253 144.065 33.5707 144.065 32.888C144.065 32.0453 144.433 31.3947 145.169 30.936C145.905 30.4667 147.078 30.1467 148.689 29.976C148.678 29.56 148.566 29.2027 148.353 28.904C148.15 28.5947 147.782 28.44 147.249 28.44C146.865 28.44 146.486 28.5147 146.113 28.664C145.75 28.8133 145.393 28.9947 145.041 29.208L144.369 27.976C144.806 27.6987 145.297 27.4587 145.841 27.256C146.396 27.0533 146.982 26.952 147.601 26.952C148.582 26.952 149.313 27.2453 149.793 27.832C150.284 28.408 150.529 29.2453 150.529 30.344V35H149.009L148.881 34.136H148.817C148.465 34.4347 148.086 34.6853 147.681 34.888C147.286 35.0907 146.854 35.192 146.385 35.192ZM146.977 33.752C147.297 33.752 147.585 33.6773 147.841 33.528C148.108 33.368 148.39 33.1547 148.689 32.888V31.128C147.622 31.2667 146.881 31.4747 146.465 31.752C146.049 32.0187 145.841 32.3493 145.841 32.744C145.841 33.096 145.948 33.352 146.161 33.512C146.374 33.672 146.646 33.752 146.977 33.752Z" fill="white"/>
<rect width="60" height="60" rx="30" fill="#6E07F3"/>
<path d="M15.6496 41.36C14.4296 41.36 13.1596 41.13 11.8396 40.67C10.5196 40.21 9.32957 39.51 8.26957 38.57L11.2096 35.03C11.9096 35.59 12.6596 36.05 13.4596 36.41C14.2796 36.75 15.0496 36.92 15.7696 36.92C16.5496 36.92 17.1096 36.8 17.4496 36.56C17.8096 36.32 17.9896 35.98 17.9896 35.54C17.9896 35.08 17.7496 34.73 17.2696 34.49C16.8096 34.25 16.1696 33.97 15.3496 33.65L12.9196 32.63C11.8796 32.21 10.9596 31.55 10.1596 30.65C9.37957 29.75 8.98957 28.6 8.98957 27.2C8.98957 26.08 9.29957 25.07 9.91957 24.17C10.5396 23.25 11.3896 22.52 12.4696 21.98C13.5696 21.42 14.8296 21.14 16.2496 21.14C17.3696 21.14 18.4996 21.36 19.6396 21.8C20.7996 22.22 21.8296 22.87 22.7296 23.75L20.1496 26.99C19.4896 26.53 18.8496 26.18 18.2296 25.94C17.6296 25.7 16.9696 25.58 16.2496 25.58C15.6296 25.58 15.1296 25.69 14.7496 25.91C14.3896 26.13 14.2096 26.46 14.2096 26.9C14.2096 27.36 14.4696 27.72 14.9896 27.98C15.5096 28.22 16.2096 28.51 17.0896 28.85L19.4596 29.78C20.6796 30.26 21.6196 30.93 22.2796 31.79C22.9396 32.65 23.2696 33.76 23.2696 35.12C23.2696 36.22 22.9696 37.25 22.3696 38.21C21.7896 39.15 20.9296 39.91 19.7896 40.49C18.6496 41.07 17.2696 41.36 15.6496 41.36ZM26.4032 41V21.5H31.5632V28.76H31.6832L36.6032 21.5H42.2432L36.4232 29.42L43.3832 41H37.7432L33.4232 33.5L31.5632 36.14V41H26.4032ZM47.8811 41.36C47.0211 41.36 46.3011 41.06 45.7211 40.46C45.1611 39.84 44.8811 39.1 44.8811 38.24C44.8811 37.36 45.1611 36.62 45.7211 36.02C46.3011 35.42 47.0211 35.12 47.8811 35.12C48.7611 35.12 49.4811 35.42 50.0411 36.02C50.6011 36.62 50.8811 37.36 50.8811 38.24C50.8811 39.1 50.6011 39.84 50.0411 40.46C49.4811 41.06 48.7611 41.36 47.8811 41.36Z" fill="white"/>
</svg>
