<svg width="60" height="60" viewBox="0 0 60 60" fill="none" xmlns="http://www.w3.org/2000/svg">
<rect width="60" height="60" rx="30" fill="#1042A3"/>
<path d="M15.6496 41.36C14.4296 41.36 13.1596 41.13 11.8396 40.67C10.5196 40.21 9.32957 39.51 8.26957 38.57L11.2096 35.03C11.9096 35.59 12.6596 36.05 13.4596 36.41C14.2796 36.75 15.0496 36.92 15.7696 36.92C16.5496 36.92 17.1096 36.8 17.4496 36.56C17.8096 36.32 17.9896 35.98 17.9896 35.54C17.9896 35.08 17.7496 34.73 17.2696 34.49C16.8096 34.25 16.1696 33.97 15.3496 33.65L12.9196 32.63C11.8796 32.21 10.9596 31.55 10.1596 30.65C9.37957 29.75 8.98957 28.6 8.98957 27.2C8.98957 26.08 9.29957 25.07 9.91957 24.17C10.5396 23.25 11.3896 22.52 12.4696 21.98C13.5696 21.42 14.8296 21.14 16.2496 21.14C17.3696 21.14 18.4996 21.36 19.6396 21.8C20.7996 22.22 21.8296 22.87 22.7296 23.75L20.1496 26.99C19.4896 26.53 18.8496 26.18 18.2296 25.94C17.6296 25.7 16.9696 25.58 16.2496 25.58C15.6296 25.58 15.1296 25.69 14.7496 25.91C14.3896 26.13 14.2096 26.46 14.2096 26.9C14.2096 27.36 14.4696 27.72 14.9896 27.98C15.5096 28.22 16.2096 28.51 17.0896 28.85L19.4596 29.78C20.6796 30.26 21.6196 30.93 22.2796 31.79C22.9396 32.65 23.2696 33.76 23.2696 35.12C23.2696 36.22 22.9696 37.25 22.3696 38.21C21.7896 39.15 20.9296 39.91 19.7896 40.49C18.6496 41.07 17.2696 41.36 15.6496 41.36ZM26.4032 41V21.5H31.5632V28.76H31.6832L36.6032 21.5H42.2432L36.4232 29.42L43.3832 41H37.7432L33.4232 33.5L31.5632 36.14V41H26.4032ZM47.8811 41.36C47.0211 41.36 46.3011 41.06 45.7211 40.46C45.1611 39.84 44.8811 39.1 44.8811 38.24C44.8811 37.36 45.1611 36.62 45.7211 36.02C46.3011 35.42 47.0211 35.12 47.8811 35.12C48.7611 35.12 49.4811 35.42 50.0411 36.02C50.6011 36.62 50.8811 37.36 50.8811 38.24C50.8811 39.1 50.6011 39.84 50.0411 40.46C49.4811 41.06 48.7611 41.36 47.8811 41.36Z" fill="white"/>
</svg>
